<?xml version="1.0" encoding="utf-8"?>
<svg viewBox="0.166 97.667 513.344 326.664" width="513.344" height="326.664" xmlns="http://www.w3.org/2000/svg">
  <path d="M 256.838 424.331 C 196.811 424.331 135.608 396.253 78.678 350.284 C 37.408 316.952 0.166 274.327 0.166 260.999 C 0.166 247.671 37.408 205.046 78.678 171.714 C 135.6 125.745 196.808 97.667 256.838 97.667 C 316.868 97.667 378.068 125.745 434.998 171.714 C 476.268 205.046 513.51 247.671 513.51 260.999 C 513.51 274.327 476.268 316.952 434.998 350.284 C 378.076 396.253 316.868 424.331 256.838 424.331 Z M 256.838 400.999 C 310.631 400.999 367.188 375.058 420.338 332.132 C 440.315 315.995 458.58 298.331 472.897 281.944 C 478.791 275.198 483.667 269.046 487.01 264.217 C 488.853 261.561 490.174 259.064 490.174 260.998 C 490.174 262.931 488.853 260.435 487.01 257.779 C 483.666 252.951 478.791 246.799 472.897 240.052 C 458.581 223.665 440.315 206.001 420.338 189.864 C 367.19 146.938 310.638 120.997 256.838 120.997 C 203.038 120.997 146.488 146.938 93.338 189.864 C 73.361 206.001 55.096 223.665 40.779 240.052 C 34.884 246.798 30.009 252.95 26.666 257.779 C 24.822 260.435 23.502 262.931 23.502 260.998 C 23.502 259.064 24.822 261.56 26.666 264.217 C 30.009 269.045 34.884 275.197 40.779 281.944 C 55.095 298.331 73.361 315.995 93.338 332.132 C 146.486 375.058 203.038 400.999 256.838 400.999 Z M 256.838 354.331 C 205.291 354.331 163.506 312.546 163.506 260.999 C 163.506 209.452 205.291 167.667 256.838 167.667 C 308.385 167.667 350.17 209.452 350.17 260.999 C 350.17 312.546 308.385 354.331 256.838 354.331 Z M 256.838 330.999 C 295.498 330.999 326.838 299.659 326.838 260.999 C 326.838 222.339 295.498 190.999 256.838 190.999 C 218.178 190.999 186.838 222.339 186.838 260.999 C 186.838 299.659 218.178 330.999 256.838 330.999 Z"/>
  <path style="stroke: rgb(0, 0, 0);" d="M 12.985 378.749 L 464.845 105.824 L 490.356 145.532 L 37.206 419.282 L 12.985 378.749 Z"/>
</svg>