<?xml version="1.0" encoding="UTF-8"?>
<svg width="700pt" height="700pt" version="1.1" viewBox="0 0 700 700" xmlns="http://www.w3.org/2000/svg">
 <path d="m350 443.33c-60.027 0-121.23-28.078-178.16-74.047-41.27-33.332-78.512-75.957-78.512-89.285s37.242-55.953 78.512-89.285c56.922-45.969 118.13-74.047 178.16-74.047s121.23 28.078 178.16 74.047c41.27 33.332 78.512 75.957 78.512 89.285s-37.242 55.953-78.512 89.285c-56.922 45.969-118.13 74.047-178.16 74.047zm0-23.332c53.793 0 110.35-25.941 163.5-68.867 19.977-16.137 38.242-33.801 52.559-50.188 5.8945-6.7461 10.77-12.898 14.113-17.727 1.8438-2.6562 3.1641-5.1523 3.1641-3.2188s-1.3203-0.5625-3.1641-3.2188c-3.3438-4.8281-8.2188-10.98-14.113-17.727-14.316-16.387-32.582-34.051-52.559-50.188-53.148-42.926-109.7-68.867-163.5-68.867s-110.35 25.941-163.5 68.867c-19.977 16.137-38.242 33.801-52.559 50.188-5.8945 6.7461-10.77 12.898-14.113 17.727-1.8438 2.6562-3.1641 5.1523-3.1641 3.2188s1.3203 0.5625 3.1641 3.2188c3.3438 4.8281 8.2188 10.98 14.113 17.727 14.316 16.387 32.582 34.051 52.559 50.188 53.148 42.926 109.7 68.867 163.5 68.867zm0-46.668c-51.547 0-93.332-41.785-93.332-93.332s41.785-93.332 93.332-93.332 93.332 41.785 93.332 93.332-41.785 93.332-93.332 93.332zm0-23.332c38.66 0 70-31.34 70-70s-31.34-70-70-70-70 31.34-70 70 31.34 70 70 70z"/>
</svg>
