<?xml version="1.0" standalone="no"?>
<!DOCTYPE svg PUBLIC "-//W3C//DTD SVG 20010904//EN"
 "http://www.w3.org/TR/2001/REC-SVG-20010904/DTD/svg10.dtd">
<svg version="1.0" xmlns="http://www.w3.org/2000/svg"
 width="273.000000pt" height="273.000000pt" viewBox="0 0 273.000000 273.000000"
 preserveAspectRatio="xMidYMid meet">
<metadata>
Created by potrace 1.14, written by Peter Selinger 2001-2017
</metadata>
<g transform="translate(0.000000,273.000000) scale(0.100000,-0.100000)"
fill="#000000" stroke="none">
<path d="M1287 2424 c-1 -1 -24 -4 -52 -8 -106 -12 -294 -73 -344 -110 -7 -6
-19 -11 -27 -12 -7 -1 -25 -12 -40 -23 -15 -12 -33 -21 -41 -21 -8 0 -11 -4
-8 -10 3 -5 -1 -10 -9 -10 -9 0 -16 -4 -16 -10 0 -5 -7 -10 -15 -10 -8 0 -15
-4 -15 -10 0 -5 -4 -10 -8 -10 -12 0 -130 -119 -124 -125 3 -3 0 -5 -6 -5 -6
0 -26 -21 -43 -47 -18 -27 -36 -50 -40 -53 -4 -3 -24 -39 -45 -80 -20 -41 -40
-77 -43 -80 -3 -3 -8 -16 -10 -30 -1 -14 -6 -27 -10 -30 -8 -6 -38 -103 -47
-155 -4 -22 -8 -49 -11 -60 -6 -30 -4 -265 2 -300 13 -74 18 -95 42 -167 15
-49 30 -78 39 -78 8 0 14 -8 14 -18 0 -14 -12 -20 -52 -28 -58 -10 -63 -19
-47 -94 8 -35 19 -103 24 -148 4 -31 34 -74 45 -67 6 4 10 2 10 -3 0 -13 109
-57 118 -47 8 7 9 13 11 48 1 19 6 22 38 20 21 -1 46 -2 56 -2 10 -1 15 -5 12
-11 -3 -5 -2 -10 2 -10 8 0 41 -27 100 -80 12 -11 24 -20 27 -20 5 0 108 -62
116 -70 3 -3 14 -7 25 -8 11 -2 22 -7 25 -12 6 -8 113 -49 149 -56 14 -3 28
-7 31 -9 4 -2 37 -9 75 -15 118 -19 340 -13 403 11 12 5 22 7 22 4 0 -2 16 3
35 11 19 8 35 12 35 9 0 -2 20 4 44 15 24 10 47 16 50 13 3 -4 6 -2 6 4 0 6
18 18 40 27 48 19 167 92 192 117 10 10 25 23 35 31 10 7 27 26 37 42 12 19
21 25 28 18 7 -7 18 -7 34 0 20 9 27 8 38 -7 7 -10 12 -29 10 -42 -4 -39 21
-38 100 2 l73 37 23 133 c12 73 19 138 16 144 -4 5 -22 13 -41 17 -43 8 -50
17 -37 52 6 15 14 36 18 47 4 11 8 23 9 28 2 4 3 8 5 10 1 1 3 9 5 17 1 8 8
34 14 56 17 64 24 130 23 242 0 118 -6 164 -28 247 -9 33 -17 65 -18 70 -3 10
-12 33 -44 112 -9 24 -21 43 -25 43 -5 0 -5 5 -2 10 3 6 2 10 -3 10 -5 0 -12
8 -16 18 -3 9 -15 31 -26 47 -10 17 -26 42 -35 58 -9 15 -20 27 -25 27 -6 0
-10 7 -10 15 0 8 -7 15 -15 15 -8 0 -15 4 -15 8 0 12 -79 92 -91 92 -6 0 -7 5
-4 10 3 6 2 10 -4 10 -5 0 -16 6 -23 13 -43 41 -249 160 -273 157 -3 0 -18 6
-34 14 -15 8 -39 17 -52 20 -13 3 -42 10 -64 16 -52 13 -140 22 -238 23 -43 1
-79 1 -80 1z"/>
</g>
</svg>
